<mxfile host="app.diagrams.net" modified="2021-08-23T08:50:05.728Z" agent="5.0 (Windows NT 10.0; Win64; x64) AppleWebKit/537.36 (KHTML, like Gecko) Chrome/92.0.4515.159 Safari/537.36" etag="uK53qeOfvEIIGx2VyFbT" version="14.9.8" type="github">
  <diagram id="9a09a41Avvm3HiaATYl2" name="Page-1">
    <mxGraphModel dx="1221" dy="644" grid="1" gridSize="10" guides="1" tooltips="1" connect="1" arrows="1" fold="1" page="1" pageScale="1" pageWidth="1654" pageHeight="2336" math="0" shadow="0">
      <root>
        <mxCell id="0" />
        <mxCell id="1" parent="0" />
        <mxCell id="OrbjU09w3kUgdsK7NRht-11" value="Actor" style="shape=umlActor;verticalLabelPosition=bottom;verticalAlign=top;html=1;outlineConnect=0;" parent="1" vertex="1">
          <mxGeometry x="40" y="1100" width="70" height="100" as="geometry" />
        </mxCell>
        <mxCell id="OrbjU09w3kUgdsK7NRht-14" value="" style="endArrow=classic;html=1;" parent="1" edge="1">
          <mxGeometry width="50" height="50" relative="1" as="geometry">
            <mxPoint x="115" y="1103" as="sourcePoint" />
            <mxPoint x="205" y="1053" as="targetPoint" />
          </mxGeometry>
        </mxCell>
        <mxCell id="OrbjU09w3kUgdsK7NRht-16" value="" style="endArrow=classic;html=1;" parent="1" edge="1">
          <mxGeometry width="50" height="50" relative="1" as="geometry">
            <mxPoint x="115" y="1140" as="sourcePoint" />
            <mxPoint x="200" y="1140" as="targetPoint" />
          </mxGeometry>
        </mxCell>
        <mxCell id="OrbjU09w3kUgdsK7NRht-17" value="" style="endArrow=classic;html=1;" parent="1" edge="1">
          <mxGeometry width="50" height="50" relative="1" as="geometry">
            <mxPoint x="120" y="1240" as="sourcePoint" />
            <mxPoint x="200" y="1280" as="targetPoint" />
          </mxGeometry>
        </mxCell>
        <mxCell id="OrbjU09w3kUgdsK7NRht-18" value="" style="endArrow=classic;html=1;" parent="1" edge="1">
          <mxGeometry width="50" height="50" relative="1" as="geometry">
            <mxPoint x="116" y="1200" as="sourcePoint" />
            <mxPoint x="206" y="1200" as="targetPoint" />
          </mxGeometry>
        </mxCell>
        <mxCell id="OrbjU09w3kUgdsK7NRht-19" value="" style="endArrow=classic;html=1;" parent="1" edge="1">
          <mxGeometry width="50" height="50" relative="1" as="geometry">
            <mxPoint x="116" y="1080" as="sourcePoint" />
            <mxPoint x="236" y="930" as="targetPoint" />
            <Array as="points">
              <mxPoint x="146" y="1040" />
            </Array>
          </mxGeometry>
        </mxCell>
        <mxCell id="OrbjU09w3kUgdsK7NRht-20" value="" style="endArrow=classic;html=1;" parent="1" edge="1">
          <mxGeometry width="50" height="50" relative="1" as="geometry">
            <mxPoint x="120" y="1270" as="sourcePoint" />
            <mxPoint x="197" y="1410" as="targetPoint" />
            <Array as="points">
              <mxPoint x="130" y="1290" />
            </Array>
          </mxGeometry>
        </mxCell>
      </root>
    </mxGraphModel>
  </diagram>
</mxfile>
